<?xml version="1.0" encoding="iso-8859-1"?>
<!-- Generator: Adobe Illustrator 19.1.0, SVG Export Plug-In . SVG Version: 6.00 Build 0)  -->
<svg version="1.1" id="Layer_1" xmlns="http://www.w3.org/2000/svg" xmlns:xlink="http://www.w3.org/1999/xlink" x="0px" y="0px"
	 viewBox="174 330 960 134" style="enable-background:new 174 330 960 134;" xml:space="preserve">
<g>
	<g>
		<path style="fill:#FFFFFF;" d="M265.68,359.122c-9.9-10.183-14.849-15.197-24.748-25.081
			c-9.911,9.875-14.856,14.885-24.749,25.056h-0.048v33.575c7.865-0.236,12.154-0.317,19.388-0.352v-21.819l2.996-0.008
			c2.289-0.004,3.675-0.006,6.188,0.01l2.182,0.013v21.814c7.013,0.046,11.194,0.135,18.841,0.361v-33.57H265.68z"/>
		<path style="fill:#FFFFFF;" d="M207.611,359.395c-9.899-9.48-14.844-14.149-24.727-23.331v36.44
			c1.086-0.077,2.168-0.151,3.624-0.242l2.332-0.146v21.813c6.997-0.452,11.175-0.661,18.815-0.968v-33.57
			C207.634,359.393,207.625,359.393,207.611,359.395"/>
		<path style="fill:#FFFFFF;" d="M293.021,374.264l2.336,0.147c1.453,0.092,2.526,0.164,3.617,0.24v-38.59
			c-9.88,9.184-14.827,13.851-24.73,23.334c-0.013-0.003-0.016-0.003-0.041-0.003v33.572c7.643,0.305,11.818,0.514,18.818,0.967
			V374.264z"/>
		<path style="fill:#FFFFFF;" d="M302.184,410.877v-8.135l-0.148-0.01c-40.562-2.77-81.679-2.787-122.215-0.059l-0.142,0.01v8.139
			C220.343,408.094,261.558,408.11,302.184,410.877"/>
		<path style="fill:#FFFFFF;" d="M318.962,334.133h28.254c18.981,0,26.226,7.971,26.226,22.314c0,9.997-3.766,18.261-17.096,21.007
			l21.59,33.182h-12.025l-19.855-31.584h-16.665v31.584h-10.429V334.133z M346.204,371.372c12.603,0,16.808-5.506,16.808-14.781
			c0-9.997-3.914-14.487-16.808-14.487h-16.663v29.268H346.204z"/>
		<path style="fill:#FFFFFF;" d="M422.571,332.828c21.3,0,35.352,10.288,35.352,39.558c0,29.27-14.052,39.705-35.352,39.705
			s-35.354-10.435-35.354-39.705C387.218,343.115,401.271,332.828,422.571,332.828 M422.571,403.83
			c15.358,0,24.634-7.247,24.634-31.444c0-24.198-9.276-31.297-24.634-31.297c-15.358,0-24.634,7.099-24.634,31.297
			C397.938,396.584,407.214,403.83,422.571,403.83"/>
		<polygon style="fill:#FFFFFF;" points="488.983,381.95 463.338,334.133 474.492,334.133 491.3,366.589 494.49,373.255 
			497.679,366.589 514.198,334.133 525.208,334.133 499.56,381.662 499.56,410.637 488.983,410.637 		"/>
		<path style="fill:#FFFFFF;" d="M591.018,410.638h-10.435l-7.682-20.138h-34.483l-7.532,20.138h-10.146l28.979-77.087h12.321
			L591.018,410.638z M570.298,382.094l-14.344-38.254h-0.581l-14.349,38.254H570.298z"/>
		<polygon style="fill:#FFFFFF;" points="603.946,334.135 614.38,334.135 614.38,402.089 650.896,402.089 650.896,410.638 
			603.946,410.638 		"/>
		<path style="fill:#FFFFFF;" d="M688.668,371.322c6.328,1.639,8.514,7.102,8.514,18.24c0,15.291-4.581,21.077-15.502,21.077
			h-12.237v-76.452h10.926c13.432,0,15.941,6.992,15.941,18.898c0,10.483-2.619,15.401-7.642,17.801V371.322z M680.693,369.139
			c5.351,0,10.266-2.182,10.266-15.727c0-9.829-1.195-14.742-10.372-14.742h-5.898v30.469H680.693z M680.805,406.27
			c8.189,0,11.031-3.825,11.031-16.603c0-14.303-4.261-15.942-11.144-15.942h-6.003v32.545H680.805z"/>
		<path style="fill:#FFFFFF;" d="M729.012,396.987c0,3.606,0.215,10.043,0.436,13.65h-5.023l-0.334-5.896h-0.436
			c-1.308,3.278-3.817,6.335-8.956,6.335c-5.895,0-9.061-2.731-9.061-11.576v-38.66h5.128v37.132c0,5.568,0.439,8.953,5.464,8.953
			c6.334,0,7.645-7.756,7.645-14.089V360.84h5.136V396.987z"/>
		<path style="fill:#FFFFFF;" d="M738.151,344.345h6.337v8.189h-6.337V344.345z M738.695,360.837h5.238v49.802h-5.238V360.837z"/>
		<rect x="753.541" y="334.19" style="fill:#FFFFFF;" width="5.131" height="76.45"/>
		<path style="fill:#FFFFFF;" d="M786.563,404.197c-1.311,3.494-3.715,6.876-8.63,6.876c-6.118,0-10.81-3.493-10.81-25.008
			c0-21.512,4.369-25.661,11.033-25.661c4.038,0,6.439,2.182,7.863,6.113l0.436,1.31v-33.639h5.128v62.471
			c0,3.826,0.223,10.267,0.439,13.979h-4.805l-0.218-7.858L786.563,404.197z M786.563,385.74c0-16.93-2.945-21.187-7.424-21.187
			c-3.279,0-6.883,2.074-6.883,21.512c0,18.35,3.273,21.08,7.206,21.08C783.718,407.145,786.563,402.556,786.563,385.74"/>
		<path style="fill:#FFFFFF;" d="M800.728,344.345h6.334v8.189h-6.334V344.345z M801.274,360.837h5.238v49.802h-5.238V360.837z"/>
		<path style="fill:#FFFFFF;" d="M816.091,360.839h5.023v5.676h0.439c1.637-3.491,3.712-6.112,9.071-6.112
			c5.895,0,9.387,2.728,9.387,11.573v38.665h-5.133v-37.137c0-5.566-0.872-8.843-5.79-8.843c-6.441,0-7.86,6.661-7.86,12.886v33.094
			h-5.136V360.839z"/>
		<path style="fill:#FFFFFF;" d="M873.962,365.096h-2.07l-4.151-0.764l-0.108,0.328c1.742,2.402,2.942,6.553,2.942,12.232
			c0,13.106-4.479,16.712-10.59,16.712c-1.752,0-3.276-0.439-4.697-1.314c-1.093,1.206-2.727,3.603-2.727,6.556
			c0,5.133,2.506,6.007,8.95,6.882c7.65,1.089,12.668,2.292,12.668,14.962c0,10.808-5.348,15.508-13.868,15.508
			c-10.159,0-14.307-5.028-14.307-14.746c0-7.972,2.517-12.012,7.206-13.217v-0.433c-2.727-0.767-5.128-3.062-5.128-8.194
			c0-3.385,1.849-6.443,4.038-8.735v-0.441c-1.968-2.618-3.82-6.551-3.82-13.759c0-12.671,4.695-16.271,11.031-16.271
			c2.07,0,4.038,0.328,5.567,1.093l5.57-0.654h3.494V365.096z M851.028,421.231c0,8.083,2.95,11.254,9.284,11.254
			c6.008,0,8.85-3.717,8.85-11.473c0-9.72-3.502-11.135-11.365-11.135C853.76,409.878,851.028,413.479,851.028,421.231
			 M859.768,390.326c3.497,0,5.682-2.513,5.682-13.541c0-11.035-2.406-12.784-6.011-12.784c-3.494,0-6.005,1.75-6.005,12.784
			C853.434,387.484,856.054,390.326,859.768,390.326"/>
		<path style="fill:#FFFFFF;" d="M899.631,334.188h10.595c11.906,0,15.836,4.482,15.836,21.954c0,15.723-4.366,22.933-13.874,22.933
			h-7.206v31.56h-5.351V334.188z M911.203,374.489c6.45,0,9.61-4.697,9.61-18.346c0-13.109-1.744-17.365-9.497-17.365h-6.334v35.711
			H911.203z"/>
		<path style="fill:#FFFFFF;" d="M934.182,360.839h4.92v6.44h0.436c1.419-4.366,3.817-6.876,7.968-6.876
			c0.765,0,1.858,0.215,2.183,0.436v5.46c-0.541-0.221-1.419-0.328-2.396-0.328c-4.589,0-7.976,5.133-7.976,16.602v28.069h-5.136
			V360.839z"/>
		<path style="fill:#FFFFFF;" d="M967.659,360.4c8.296,0,12.886,4.371,12.886,25.338c0,21.077-4.59,25.338-12.886,25.338
			c-8.415,0-12.889-4.151-12.889-25.338C954.77,364.771,959.357,360.4,967.659,360.4 M967.659,407.143
			c4.694,0,7.75-3.058,7.75-21.405c0-18.238-3.055-21.187-7.75-21.187c-4.7,0-7.755,2.949-7.755,21.187
			C959.903,404.085,962.959,407.143,967.659,407.143"/>
		<path style="fill:#FFFFFF;" d="M1007.227,404.197c-1.311,3.494-3.714,6.876-8.63,6.876c-6.118,0-10.81-3.493-10.81-25.008
			c0-21.512,4.369-25.661,11.031-25.661c4.04,0,6.439,2.182,7.86,6.113l0.439,1.31v-33.639h5.133v62.471
			c0,3.826,0.218,10.267,0.434,13.979h-4.8l-0.218-7.858L1007.227,404.197z M1007.227,385.74c0-16.93-2.945-21.187-7.429-21.187
			c-3.276,0-6.878,2.074-6.878,21.512c0,18.35,3.273,21.08,7.209,21.08C1004.385,407.145,1007.227,402.556,1007.227,385.74"/>
		<path style="fill:#FFFFFF;" d="M1045.044,396.987c0,3.606,0.218,10.043,0.441,13.65h-5.031l-0.326-5.896h-0.436
			c-1.308,3.278-3.82,6.335-8.95,6.335c-5.903,0-9.069-2.731-9.069-11.576v-38.66h5.133v37.132c0,5.568,0.438,8.953,5.459,8.953
			c6.339,0,7.65-7.756,7.65-14.089V360.84h5.128V396.987z"/>
		<path style="fill:#FFFFFF;" d="M1071.868,375.689c-0.657-8.189-2.293-11.136-6.113-11.136c-4.371,0-7.322,3.602-7.322,21.187
			c0,17.472,2.95,21.29,7.322,21.29c3.927,0,5.672-3.054,6.331-11.138h4.91c-0.649,11.688-4.474,15.181-11.241,15.181
			c-7.211,0-12.452-3.493-12.452-25.333c0-22.062,5.569-25.338,12.452-25.338c6.985,0,10.371,3.599,11.028,15.287H1071.868z"/>
		<path style="fill:#FFFFFF;" d="M1090.804,343.692v17.147h7.976v4.697h-7.976v35.601c0,4.587,1.747,5.572,4.364,5.572
			c1.755,0,3.281-0.549,4.371-0.985v4.371c-1.416,0.544-3.712,0.98-5.782,0.98c-3.497,0-7.866-0.98-7.866-9.168v-36.37h-4.584
			v-4.697h4.584l0.549-17.147H1090.804z"/>
		<path style="fill:#FFFFFF;" d="M1109.262,396.66c0,7.97,2.075,10.483,6.006,10.483c5.133,0,5.68-3.712,5.68-9.393
			c0-15.286-15.836-8.52-15.836-25.115c0-8.085,2.619-12.233,10.048-12.233c6.988,0,10.374,2.949,10.485,12.993h-4.805
			c-0.11-6.55-1.206-8.845-5.68-8.845c-4.038,0-4.913,2.728-4.913,7.428c0,14.082,15.836,6.553,15.836,25.446
			c0,8.517-1.86,13.649-10.7,13.649c-7.432,0-10.926-3.82-11.033-14.413H1109.262z"/>
		<path style="fill:#FFFFFF;" d="M639.858,339.376h1.734c0.744,0,1.253,0.054,1.529,0.161c0.273,0.108,0.489,0.275,0.643,0.493
			c0.158,0.221,0.234,0.47,0.234,0.75c0,0.434-0.16,0.78-0.483,1.044c-0.323,0.26-0.925,0.393-1.807,0.393h-1.849V339.376z
			 M639.858,347.53v-4.014h0.89c0.536,0,0.943,0.11,1.219,0.326c0.405,0.296,0.935,1.027,1.592,2.198l0.833,1.491h1.857
			l-1.151-1.848c-0.549-0.878-1.011-1.501-1.39-1.876c-0.202-0.193-0.468-0.36-0.801-0.498c0.814-0.065,1.471-0.349,1.962-0.861
			c0.494-0.508,0.741-1.109,0.741-1.797c0-0.487-0.147-0.947-0.441-1.381c-0.297-0.432-0.688-0.737-1.187-0.909
			c-0.494-0.175-1.295-0.261-2.404-0.261h-3.242v9.43H639.858z M645.761,336.32c1.169,0.629,2.078,1.533,2.732,2.703
			c0.652,1.173,0.98,2.394,0.98,3.663c0,1.262-0.323,2.47-0.961,3.627c-0.644,1.157-1.545,2.061-2.703,2.706
			c-1.161,0.646-2.372,0.968-3.631,0.968c-1.261,0-2.472-0.322-3.631-0.968c-1.161-0.645-2.065-1.549-2.709-2.706
			c-0.646-1.157-0.969-2.364-0.969-3.627c0-1.269,0.328-2.491,0.988-3.663c0.657-1.171,1.568-2.074,2.729-2.703
			c1.166-0.631,2.362-0.947,3.591-0.947C643.399,335.373,644.594,335.69,645.761,336.32 M637.874,335.055
			c-1.4,0.754-2.491,1.835-3.276,3.239c-0.786,1.404-1.18,2.867-1.18,4.392c0,1.509,0.389,2.959,1.159,4.353
			c0.775,1.393,1.857,2.475,3.244,3.244c1.39,0.77,2.84,1.153,4.356,1.153c1.516,0,2.969-0.383,4.356-1.153
			c1.387-0.77,2.467-1.851,3.236-3.244c0.77-1.394,1.153-2.844,1.153-4.353c0-1.525-0.391-2.988-1.172-4.392
			s-1.87-2.485-3.271-3.239c-1.4-0.753-2.835-1.132-4.303-1.132C640.706,333.923,639.272,334.303,637.874,335.055"/>
	</g>
	<g>
		<path style="fill:#FFFFFF;" d="M907.431,438.819c0.331,0,0.588,0.005,0.788,0.01c0.189,0.01,0.347,0.029,0.457,0.06
			c0.105,0.029,0.184,0.071,0.231,0.118c0.047,0.045,0.089,0.108,0.116,0.186l5.8,16.093c0.058,0.155,0.005,0.263-0.168,0.326
			c-0.173,0.066-0.604,0.095-1.292,0.095h-0.279c-0.347,0-0.625-0.008-0.846-0.024c-0.215-0.016-0.394-0.037-0.525-0.071
			c-0.131-0.029-0.231-0.071-0.294-0.115c-0.063-0.047-0.1-0.111-0.121-0.189l-1.335-3.893h-5.396l-1.287,3.893
			c-0.047,0.142-0.173,0.242-0.389,0.305c-0.21,0.066-0.652,0.095-1.324,0.095h-0.236c-0.688,0-1.114-0.024-1.266-0.071
			c-0.158-0.047-0.205-0.158-0.142-0.328l5.727-16.114c0.016-0.063,0.042-0.118,0.079-0.165c0.042-0.045,0.115-0.084,0.221-0.116
			c0.116-0.031,0.263-0.055,0.462-0.068c0.194-0.018,0.462-0.026,0.809-0.026H907.431z M905.434,448.833h3.662l-0.257-0.82
			c-0.205-0.638-0.384-1.211-0.541-1.71c-0.158-0.502-0.3-0.951-0.42-1.35c-0.126-0.397-0.237-0.759-0.331-1.08
			c-0.095-0.318-0.179-0.636-0.258-0.951c-0.174,0.596-0.384,1.319-0.641,2.173c-0.263,0.851-0.578,1.839-0.956,2.966
			L905.434,448.833z"/>
		<path style="fill:#FFFFFF;" d="M923.619,438.819c0.667,0,1.114,0.029,1.324,0.081c0.21,0.055,0.331,0.16,0.362,0.315l1.713,6.875
			c0.231,0.94,0.462,1.92,0.678,2.945c0.221,1.025,0.394,1.981,0.52,2.871c0.042-0.373,0.105-0.799,0.174-1.277
			c0.073-0.478,0.147-0.975,0.236-1.49c0.084-0.515,0.173-1.038,0.268-1.571c0.095-0.533,0.195-1.032,0.305-1.503l1.571-6.851
			c0.016-0.076,0.047-0.142,0.094-0.197c0.047-0.058,0.132-0.1,0.247-0.129c0.116-0.031,0.284-0.05,0.494-0.06
			c0.21-0.005,0.489-0.01,0.83-0.01h0.216c0.683,0,1.135,0.031,1.345,0.094c0.21,0.063,0.331,0.163,0.363,0.302l1.571,6.665
			c0.111,0.515,0.226,1.053,0.342,1.618c0.116,0.562,0.226,1.122,0.315,1.676c0.094,0.554,0.184,1.095,0.257,1.618
			c0.079,0.525,0.142,0.998,0.189,1.421c0.047-0.423,0.116-0.891,0.2-1.408c0.084-0.518,0.184-1.048,0.294-1.595
			c0.11-0.549,0.221-1.103,0.326-1.668c0.11-0.56,0.231-1.098,0.352-1.618l1.576-6.71c0.026-0.155,0.137-0.26,0.326-0.315
			c0.189-0.052,0.625-0.081,1.314-0.081h0.142c0.357,0,0.641,0.008,0.846,0.026c0.2,0.013,0.357,0.04,0.468,0.079
			c0.11,0.037,0.173,0.084,0.189,0.129c0.011,0.047,0.011,0.105,0,0.163l-4.245,16.093c-0.032,0.142-0.158,0.242-0.368,0.305
			c-0.21,0.066-0.651,0.095-1.324,0.095h-0.305c-0.72,0-1.203-0.024-1.455-0.071c-0.252-0.047-0.389-0.158-0.42-0.328l-1.293-5.301
			c-0.126-0.515-0.247-1.056-0.362-1.618c-0.116-0.562-0.231-1.127-0.342-1.689c-0.11-0.562-0.205-1.114-0.294-1.655
			c-0.084-0.539-0.147-1.043-0.2-1.513c-0.121,0.956-0.284,1.997-0.478,3.121c-0.195,1.13-0.41,2.199-0.646,3.215l-1.287,5.44
			c-0.031,0.142-0.152,0.242-0.362,0.305c-0.215,0.066-0.657,0.095-1.329,0.095h-0.494c-0.357,0-0.641-0.005-0.851-0.01
			c-0.215-0.008-0.378-0.029-0.494-0.061c-0.115-0.029-0.2-0.073-0.247-0.129c-0.047-0.055-0.079-0.121-0.094-0.2l-4.456-16.093
			c-0.031-0.076-0.037-0.139-0.01-0.186c0.021-0.045,0.089-0.084,0.2-0.116c0.105-0.031,0.273-0.055,0.489-0.068
			c0.221-0.018,0.52-0.026,0.893-0.026H923.619z"/>
		<path style="fill:#FFFFFF;" d="M946.795,450.617c0.121,0.854,0.447,1.5,0.972,1.944c0.525,0.438,1.23,0.662,2.123,0.662
			c0.578,0,1.14-0.071,1.686-0.213c0.547-0.142,1.088-0.321,1.618-0.539c0.126-0.066,0.231-0.055,0.315,0.023
			c0.089,0.079,0.195,0.297,0.32,0.657l0.21,0.581c0.142,0.402,0.205,0.67,0.2,0.791c-0.005,0.126-0.084,0.223-0.226,0.302
			c-0.594,0.328-1.293,0.596-2.096,0.804c-0.804,0.207-1.623,0.313-2.454,0.313c-0.92,0-1.755-0.139-2.496-0.42
			c-0.741-0.281-1.377-0.694-1.897-1.229c-0.525-0.541-0.93-1.201-1.214-1.973c-0.278-0.775-0.42-1.663-0.42-2.664
			c0-0.951,0.136-1.831,0.399-2.638c0.268-0.804,0.646-1.503,1.135-2.089c0.494-0.586,1.103-1.04,1.823-1.361
			c0.714-0.321,1.524-0.481,2.412-0.481c0.893,0,1.676,0.158,2.348,0.47c0.673,0.313,1.24,0.751,1.702,1.314
			c0.457,0.562,0.804,1.232,1.03,2.004c0.226,0.775,0.336,1.616,0.336,2.522c0,0.457-0.016,0.772-0.042,0.951
			c-0.031,0.181-0.094,0.268-0.189,0.268H946.795z M951.413,448.321c-0.079-0.73-0.294-1.332-0.657-1.802
			c-0.363-0.473-0.867-0.709-1.524-0.709c-0.657,0-1.187,0.223-1.597,0.662c-0.405,0.441-0.688,1.059-0.841,1.849H951.413z"/>
		<path style="fill:#FFFFFF;" d="M957.019,453.057c0.2-0.36,0.368-0.594,0.494-0.701c0.121-0.11,0.247-0.118,0.373-0.024
			c0.452,0.313,0.946,0.557,1.466,0.738c0.525,0.179,1.035,0.268,1.534,0.268c0.631,0,1.114-0.105,1.455-0.315
			c0.347-0.21,0.52-0.475,0.52-0.786c0-0.299-0.153-0.533-0.447-0.704c-0.299-0.173-0.673-0.323-1.114-0.457
			c-0.447-0.134-0.93-0.278-1.445-0.433c-0.515-0.158-0.998-0.376-1.445-0.657c-0.441-0.284-0.815-0.654-1.114-1.116
			c-0.294-0.46-0.441-1.067-0.441-1.815c0-0.61,0.121-1.164,0.373-1.658c0.252-0.491,0.589-0.909,1.019-1.253
			c0.431-0.344,0.946-0.607,1.54-0.786c0.594-0.181,1.235-0.271,1.923-0.271c0.783,0,1.492,0.103,2.144,0.305
			c0.652,0.205,1.224,0.494,1.723,0.869c0.126,0.079,0.168,0.186,0.131,0.328c-0.042,0.139-0.173,0.412-0.41,0.82l-0.21,0.328
			c-0.221,0.363-0.389,0.583-0.494,0.67c-0.11,0.084-0.231,0.089-0.352,0.013c-0.373-0.236-0.756-0.42-1.135-0.554
			c-0.384-0.129-0.804-0.197-1.256-0.197c-0.704,0-1.214,0.132-1.529,0.397c-0.215,0.189-0.326,0.415-0.326,0.68
			c0,0.297,0.147,0.531,0.447,0.691c0.294,0.165,0.667,0.318,1.114,0.46c0.441,0.139,0.925,0.292,1.439,0.457
			c0.52,0.163,0.998,0.386,1.445,0.657c0.447,0.276,0.815,0.633,1.114,1.077c0.294,0.449,0.447,1.022,0.447,1.723
			c0,0.549-0.105,1.069-0.32,1.561c-0.21,0.494-0.504,0.919-0.878,1.282c-0.893,0.859-2.18,1.287-3.867,1.287
			c-0.909,0-1.744-0.134-2.501-0.399c-0.762-0.266-1.382-0.602-1.865-1.006c-0.095-0.079-0.126-0.189-0.105-0.331
			c0.021-0.142,0.131-0.381,0.315-0.728L957.019,453.057z"/>
		<path style="fill:#FFFFFF;" d="M970.79,439.946c0.347,0,0.62,0.008,0.82,0.021c0.205,0.019,0.357,0.037,0.457,0.061
			c0.105,0.024,0.168,0.058,0.2,0.105c0.032,0.047,0.047,0.102,0.047,0.166v3.026h2.79c0.111,0,0.189,0.052,0.236,0.163
			c0.047,0.11,0.074,0.444,0.074,1.009v0.163c0,0.562-0.026,0.901-0.074,1.011c-0.047,0.111-0.126,0.16-0.236,0.16h-2.79v5.795
			c0,0.347,0.031,0.62,0.095,0.822c0.063,0.205,0.163,0.368,0.305,0.491c0.247,0.218,0.594,0.328,1.03,0.328
			c0.189,0,0.384-0.019,0.588-0.055c0.205-0.042,0.415-0.1,0.631-0.176c0.126-0.034,0.226,0.005,0.31,0.116
			c0.074,0.11,0.179,0.384,0.305,0.822l0.068,0.231c0.126,0.441,0.184,0.722,0.179,0.846c-0.01,0.129-0.084,0.226-0.226,0.307
			c-0.373,0.184-0.804,0.331-1.292,0.433c-0.483,0.1-0.951,0.15-1.408,0.15c-0.652,0-1.214-0.082-1.671-0.244
			c-0.462-0.165-0.851-0.405-1.161-0.717c-0.331-0.326-0.573-0.746-0.73-1.256c-0.158-0.504-0.236-1.143-0.236-1.913v-5.982h-1.618
			c-0.111,0-0.184-0.05-0.231-0.16c-0.047-0.11-0.073-0.449-0.073-1.011v-0.163c0-0.565,0.026-0.898,0.073-1.009
			c0.047-0.11,0.121-0.163,0.231-0.163h1.618v-3.026c0-0.063,0.016-0.118,0.037-0.166c0.026-0.047,0.089-0.081,0.184-0.105
			c0.105-0.024,0.263-0.042,0.473-0.061c0.21-0.013,0.504-0.021,0.883-0.021H970.79z"/>
		<path style="fill:#FFFFFF;" d="M979.396,437.881c0.331,0,0.594,0.005,0.799,0.01c0.2,0.008,0.357,0.024,0.457,0.047
			c0.1,0.021,0.174,0.055,0.21,0.092c0.042,0.042,0.068,0.092,0.084,0.155c0.031,0.171,0.063,0.478,0.089,0.914
			c0.037,0.436,0.058,0.961,0.074,1.571c0.016,0.612,0.026,1.287,0.037,2.031c0.005,0.741,0.01,1.513,0.01,2.309v7.461
			c0,0.265,0.058,0.465,0.163,0.599c0.11,0.131,0.315,0.197,0.609,0.197h0.284c0.11,0,0.179,0.063,0.2,0.189
			c0.021,0.126,0.032,0.405,0.032,0.843v0.213c0,0.42-0.011,0.688-0.032,0.796c-0.021,0.111-0.084,0.189-0.173,0.234
			c-0.174,0.079-0.405,0.147-0.683,0.202c-0.278,0.052-0.578,0.081-0.893,0.081c-0.841,0-1.497-0.236-1.97-0.704
			c-0.278-0.284-0.478-0.625-0.588-1.035c-0.105-0.404-0.163-0.883-0.163-1.429v-8.139c0-0.562-0.005-1.169-0.021-1.818
			c-0.016-0.646-0.031-1.271-0.047-1.865c-0.016-0.594-0.037-1.13-0.058-1.605c-0.026-0.478-0.042-0.825-0.058-1.046
			c0-0.063,0.005-0.113,0.021-0.155c0.016-0.037,0.068-0.071,0.163-0.092c0.095-0.024,0.247-0.039,0.457-0.047
			c0.215-0.005,0.504-0.01,0.883-0.01H979.396z"/>
		<path style="fill:#FFFFFF;" d="M992.437,443.629c0-0.05,0.016-0.092,0.052-0.132c0.026-0.037,0.089-0.071,0.184-0.092
			c0.094-0.023,0.231-0.045,0.41-0.058c0.184-0.019,0.426-0.024,0.741-0.024h0.142c0.594,0,0.966,0.024,1.124,0.068
			c0.158,0.05,0.231,0.134,0.231,0.257c0,0.189,0,0.473-0.005,0.846c-0.01,0.376-0.016,0.793-0.016,1.256s-0.005,0.948-0.011,1.466
			c-0.01,0.515-0.01,1.017-0.01,1.5v1.432c0,0.922,0.016,1.849,0.042,2.779c0.037,0.933,0.073,1.718,0.121,2.359
			c0,0.076-0.005,0.142-0.01,0.197c-0.01,0.058-0.058,0.1-0.142,0.129c-0.084,0.034-0.221,0.055-0.41,0.071
			c-0.189,0.016-0.447,0.024-0.772,0.024h-0.121c-0.578,0-0.946-0.019-1.114-0.058c-0.163-0.039-0.268-0.124-0.315-0.25
			c-0.031-0.079-0.063-0.2-0.084-0.357c-0.021-0.16-0.047-0.305-0.084-0.452c-0.357,0.413-0.83,0.741-1.429,0.985
			c-0.594,0.242-1.187,0.365-1.781,0.365c-0.767,0-1.461-0.139-2.075-0.42c-0.62-0.281-1.14-0.694-1.571-1.229
			c-0.431-0.541-0.762-1.19-0.988-1.952c-0.226-0.756-0.336-1.621-0.336-2.59c0-1.064,0.131-2.01,0.41-2.837
			c0.273-0.833,0.646-1.526,1.124-2.089c0.478-0.562,1.025-0.993,1.655-1.293c0.625-0.294,1.287-0.444,1.991-0.444
			c0.641,0,1.229,0.131,1.76,0.399c0.531,0.265,0.93,0.594,1.198,0.983L992.437,443.629z M992.064,447.002
			c-0.221-0.342-0.515-0.615-0.877-0.817c-0.373-0.202-0.757-0.305-1.161-0.305c-0.862,0-1.497,0.323-1.902,0.969
			c-0.405,0.646-0.61,1.579-0.61,2.795c0,0.515,0.042,0.993,0.116,1.439c0.079,0.441,0.21,0.82,0.399,1.135
			c0.189,0.307,0.441,0.554,0.762,0.733c0.321,0.179,0.715,0.271,1.182,0.271c0.378,0,0.725-0.066,1.035-0.187
			c0.31-0.126,0.557-0.297,0.73-0.518c0.121-0.171,0.21-0.362,0.257-0.573c0.047-0.207,0.068-0.454,0.068-0.735V447.002z"/>
		<path style="fill:#FFFFFF;" d="M1000.113,437.881c0.342,0,0.615,0.008,0.82,0.024c0.2,0.013,0.352,0.034,0.457,0.055
			c0.1,0.026,0.168,0.063,0.2,0.108c0.026,0.05,0.047,0.103,0.047,0.165v9.665c0.342-0.344,0.683-0.704,1.019-1.08
			c0.336-0.373,0.667-0.751,0.988-1.124c0.315-0.376,0.615-0.741,0.888-1.09c0.273-0.355,0.525-0.681,0.762-0.975
			c0.047-0.063,0.1-0.116,0.152-0.153c0.058-0.042,0.132-0.071,0.237-0.094c0.1-0.024,0.242-0.037,0.42-0.047
			c0.179-0.008,0.426-0.01,0.741-0.01h0.373c0.594,0,0.972,0.029,1.13,0.094c0.152,0.061,0.2,0.16,0.136,0.302
			c-0.168,0.378-0.399,0.778-0.678,1.208c-0.284,0.431-0.599,0.867-0.951,1.314c-0.352,0.447-0.73,0.896-1.14,1.35
			c-0.404,0.452-0.825,0.875-1.266,1.266l4.692,6.358c0.094,0.124,0.052,0.236-0.116,0.339c-0.173,0.102-0.62,0.153-1.335,0.153
			h-0.305c-0.394,0-0.704-0.005-0.93-0.01c-0.226-0.008-0.405-0.024-0.536-0.047c-0.137-0.024-0.231-0.061-0.299-0.108
			c-0.058-0.045-0.11-0.108-0.163-0.184l-3.82-5.254v5.254c0,0.061-0.021,0.116-0.047,0.163c-0.031,0.045-0.1,0.082-0.2,0.105
			c-0.105,0.024-0.257,0.042-0.457,0.058c-0.205,0.016-0.478,0.024-0.82,0.024h-0.121c-0.373,0-0.667-0.008-0.878-0.024
			c-0.216-0.016-0.368-0.034-0.473-0.058c-0.1-0.024-0.163-0.06-0.184-0.105c-0.026-0.047-0.037-0.102-0.037-0.163v-17.126
			c0-0.063,0.01-0.116,0.037-0.165c0.021-0.045,0.084-0.081,0.184-0.108c0.105-0.021,0.257-0.042,0.473-0.055
			c0.21-0.016,0.504-0.024,0.878-0.024H1000.113z"/>
		<path style="fill:#FFFFFF;" d="M1013.269,450.617c0.126,0.854,0.447,1.5,0.972,1.944c0.525,0.438,1.229,0.662,2.122,0.662
			c0.583,0,1.145-0.071,1.692-0.213c0.547-0.142,1.088-0.321,1.618-0.539c0.126-0.066,0.231-0.055,0.315,0.023
			c0.089,0.079,0.194,0.297,0.32,0.657l0.21,0.581c0.137,0.402,0.205,0.67,0.2,0.791c-0.01,0.126-0.084,0.223-0.226,0.302
			c-0.594,0.328-1.293,0.596-2.096,0.804c-0.809,0.207-1.623,0.313-2.454,0.313c-0.925,0-1.755-0.139-2.496-0.42
			c-0.746-0.281-1.377-0.694-1.902-1.229c-0.525-0.541-0.925-1.201-1.208-1.973c-0.284-0.775-0.42-1.663-0.42-2.664
			c0-0.951,0.132-1.831,0.399-2.638c0.263-0.804,0.641-1.503,1.135-2.089c0.494-0.586,1.098-1.04,1.818-1.361
			c0.72-0.321,1.524-0.481,2.417-0.481c0.893,0,1.671,0.158,2.343,0.47c0.672,0.313,1.24,0.751,1.702,1.314
			c0.462,0.562,0.809,1.232,1.035,2.004c0.226,0.775,0.336,1.616,0.336,2.522c0,0.457-0.016,0.772-0.047,0.951
			c-0.032,0.181-0.095,0.268-0.189,0.268H1013.269z M1017.893,448.321c-0.079-0.73-0.299-1.332-0.657-1.802
			c-0.362-0.473-0.872-0.709-1.524-0.709c-0.662,0-1.193,0.223-1.597,0.662c-0.405,0.441-0.688,1.059-0.846,1.849H1017.893z"/>
		<path style="fill:#FFFFFF;" d="M1040.433,441.777c-0.221,0.37-0.373,0.612-0.468,0.712c-0.095,0.105-0.215,0.108-0.352,0.013
			c-0.546-0.36-1.051-0.625-1.503-0.796c-0.452-0.176-0.967-0.26-1.55-0.26c-1.313,0-2.333,0.497-3.058,1.49
			c-0.725,0.993-1.093,2.459-1.093,4.398c0,1.815,0.341,3.223,1.024,4.224c0.678,1.001,1.729,1.5,3.153,1.5
			c0.515,0,1.046-0.068,1.592-0.21c0.552-0.142,1.072-0.344,1.571-0.61c0.173-0.094,0.31-0.097,0.399-0.013
			c0.095,0.087,0.226,0.315,0.405,0.694l0.252,0.56c0.173,0.391,0.268,0.654,0.284,0.788c0.016,0.134-0.079,0.263-0.284,0.389
			c-0.279,0.171-0.61,0.336-0.983,0.491c-0.378,0.155-0.767,0.292-1.182,0.41c-0.415,0.118-0.841,0.213-1.282,0.281
			c-0.436,0.068-0.867,0.105-1.287,0.105c-1.146,0-2.154-0.194-3.042-0.583c-0.883-0.391-1.629-0.956-2.238-1.692
			s-1.077-1.629-1.398-2.687c-0.321-1.053-0.478-2.238-0.478-3.552c0-1.314,0.168-2.511,0.504-3.599
			c0.336-1.088,0.82-2.018,1.456-2.795c0.63-0.772,1.408-1.371,2.322-1.802c0.914-0.428,1.949-0.646,3.105-0.646
			c1.755,0,3.252,0.468,4.503,1.405c0.205,0.158,0.299,0.302,0.284,0.433c-0.016,0.134-0.131,0.405-0.352,0.812L1040.433,441.777z"
			/>
		<path style="fill:#FFFFFF;" d="M1048.199,443.088c1.75,0,3.126,0.52,4.13,1.561c0.993,1.04,1.497,2.585,1.497,4.634
			c0,2.144-0.51,3.788-1.534,4.939c-1.025,1.145-2.522,1.721-4.492,1.721c-1.755,0-3.126-0.518-4.124-1.561
			c-1.004-1.038-1.503-2.582-1.503-4.632c0-2.143,0.51-3.788,1.534-4.936C1044.731,443.666,1046.229,443.088,1048.199,443.088z
			 M1048.13,445.854c-0.941,0-1.618,0.334-2.033,0.998c-0.415,0.665-0.62,1.584-0.62,2.756c0,1.143,0.189,2.023,0.573,2.64
			c0.384,0.617,0.993,0.93,1.818,0.93c0.94,0,1.618-0.336,2.033-1.001c0.415-0.665,0.62-1.584,0.62-2.753
			c0-1.143-0.194-2.025-0.578-2.64C1049.565,446.167,1048.956,445.854,1048.13,445.854z"/>
		<path style="fill:#FFFFFF;" d="M1057.651,443.324c0.578,0,0.951,0.021,1.125,0.058c0.173,0.037,0.283,0.121,0.331,0.247
			c0.031,0.108,0.058,0.26,0.095,0.457c0.031,0.197,0.058,0.378,0.089,0.552c0.394-0.455,0.877-0.825,1.445-1.114
			c0.573-0.289,1.193-0.436,1.865-0.436c0.73,0,1.424,0.158,2.065,0.47c0.641,0.313,1.125,0.772,1.455,1.384
			c0.468-0.594,1.025-1.053,1.666-1.374c0.641-0.321,1.329-0.481,2.065-0.481c0.688,0,1.293,0.11,1.813,0.331
			c0.525,0.218,0.967,0.531,1.329,0.935c0.389,0.439,0.672,0.956,0.841,1.547c0.173,0.596,0.257,1.34,0.257,2.228v7.23
			c0,0.061-0.01,0.116-0.042,0.163c-0.031,0.045-0.1,0.082-0.205,0.105c-0.1,0.024-0.252,0.042-0.452,0.058
			c-0.205,0.016-0.478,0.024-0.819,0.024h-0.121c-0.373,0-0.667-0.008-0.877-0.024c-0.215-0.016-0.373-0.034-0.468-0.058
			c-0.105-0.024-0.168-0.06-0.194-0.105c-0.021-0.047-0.031-0.102-0.031-0.163v-6.337c0-0.407-0.011-0.743-0.026-1.019
			c-0.016-0.273-0.037-0.504-0.068-0.691c-0.031-0.189-0.079-0.344-0.142-0.47c-0.063-0.124-0.137-0.242-0.236-0.352
			c-0.31-0.36-0.804-0.541-1.477-0.541c-0.215,0-0.457,0.029-0.714,0.084c-0.257,0.052-0.499,0.144-0.714,0.271
			c-0.252,0.155-0.415,0.331-0.494,0.528c-0.079,0.194-0.131,0.431-0.163,0.712c-0.032,0.268-0.047,0.604-0.047,1.011
			s0,0.836,0,1.29v5.514c0,0.061-0.016,0.116-0.047,0.163c-0.031,0.045-0.1,0.082-0.2,0.105c-0.105,0.024-0.252,0.042-0.452,0.058
			c-0.205,0.016-0.483,0.024-0.825,0.024h-0.121c-0.373,0-0.667-0.008-0.877-0.024c-0.21-0.016-0.368-0.034-0.468-0.058
			c-0.1-0.024-0.163-0.06-0.189-0.105c-0.021-0.047-0.037-0.102-0.037-0.163v-6.337c0-0.407-0.005-0.743-0.021-1.019
			c-0.016-0.273-0.037-0.504-0.068-0.691c-0.032-0.189-0.084-0.344-0.142-0.47c-0.063-0.124-0.142-0.242-0.236-0.352
			c-0.315-0.36-0.804-0.541-1.476-0.541c-0.221,0-0.457,0.029-0.714,0.084c-0.257,0.052-0.499,0.144-0.714,0.271
			c-0.252,0.155-0.421,0.331-0.499,0.528c-0.073,0.194-0.131,0.431-0.158,0.712c-0.031,0.268-0.047,0.604-0.047,1.011
			s0,0.836,0,1.29v5.514c0,0.061-0.016,0.116-0.047,0.163c-0.032,0.045-0.1,0.082-0.205,0.105c-0.1,0.024-0.252,0.042-0.452,0.058
			c-0.205,0.016-0.478,0.024-0.82,0.024h-0.121c-0.373,0-0.667-0.008-0.877-0.024c-0.21-0.016-0.368-0.034-0.468-0.058
			c-0.105-0.024-0.168-0.06-0.194-0.105c-0.021-0.047-0.031-0.102-0.031-0.163v-6.478c0-0.919-0.016-1.847-0.047-2.777
			c-0.031-0.933-0.073-1.718-0.115-2.359c0-0.076,0.005-0.144,0.021-0.2c0.016-0.055,0.068-0.097,0.163-0.126
			c0.1-0.031,0.242-0.058,0.436-0.071c0.195-0.019,0.457-0.024,0.783-0.024H1057.651z"/>
		<path style="fill:#FFFFFF;" d="M1078.525,443.324c0.583,0,0.956,0.021,1.13,0.058c0.173,0.037,0.278,0.121,0.326,0.242
			c0.031,0.11,0.063,0.25,0.084,0.42c0.026,0.171,0.052,0.339,0.084,0.51c0.389-0.449,0.872-0.804,1.439-1.069
			c0.573-0.265,1.203-0.397,1.891-0.397c0.73,0,1.398,0.147,1.992,0.436c0.594,0.289,1.103,0.701,1.524,1.24
			c0.42,0.541,0.751,1.198,0.988,1.973c0.231,0.772,0.352,1.639,0.352,2.59c0,1.032-0.126,1.962-0.378,2.782
			c-0.247,0.82-0.604,1.516-1.067,2.086c-0.462,0.573-1.009,1.006-1.645,1.303c-0.63,0.297-1.329,0.444-2.096,0.444
			c-0.531,0-1.035-0.079-1.513-0.231c-0.478-0.155-0.899-0.381-1.256-0.673v5.551c0,0.063-0.016,0.116-0.047,0.163
			c-0.031,0.047-0.1,0.082-0.2,0.105c-0.1,0.024-0.252,0.045-0.452,0.058c-0.205,0.019-0.483,0.024-0.825,0.024h-0.121
			c-0.373,0-0.662-0.005-0.872-0.024c-0.215-0.013-0.373-0.034-0.473-0.058c-0.1-0.023-0.168-0.058-0.189-0.105
			c-0.021-0.047-0.037-0.1-0.037-0.163V448.88c0-0.919-0.01-1.847-0.042-2.777c-0.037-0.933-0.074-1.718-0.121-2.359
			c0-0.076,0.01-0.144,0.021-0.2c0.021-0.055,0.073-0.097,0.168-0.126c0.094-0.031,0.236-0.058,0.436-0.071
			c0.194-0.019,0.457-0.024,0.783-0.024H1078.525z M1080.38,452.325c0.284,0.299,0.604,0.525,0.972,0.67
			c0.373,0.155,0.741,0.229,1.119,0.229c0.857,0,1.503-0.336,1.918-1.004c0.426-0.67,0.636-1.634,0.636-2.892
			c0-0.707-0.068-1.29-0.21-1.747c-0.142-0.457-0.331-0.817-0.562-1.088c-0.221-0.252-0.483-0.428-0.799-0.531
			c-0.315-0.102-0.636-0.152-0.962-0.152c-0.331,0-0.662,0.055-1.009,0.165c-0.347,0.11-0.604,0.26-0.778,0.447
			c-0.121,0.142-0.205,0.313-0.252,0.51c-0.047,0.197-0.073,0.449-0.073,0.765V452.325z"/>
		<path style="fill:#FFFFFF;" d="M1098.302,443.629c0-0.05,0.016-0.092,0.047-0.132c0.026-0.037,0.094-0.071,0.189-0.092
			c0.089-0.023,0.226-0.045,0.41-0.058c0.179-0.019,0.426-0.024,0.736-0.024h0.142c0.599,0,0.972,0.024,1.125,0.068
			c0.158,0.05,0.236,0.134,0.236,0.257c0,0.189-0.005,0.473-0.01,0.846c-0.01,0.376-0.016,0.793-0.016,1.256s0,0.948-0.005,1.466
			c-0.01,0.515-0.016,1.017-0.016,1.5v1.432c0,0.922,0.016,1.849,0.047,2.779c0.031,0.933,0.073,1.718,0.115,2.359
			c0,0.076,0,0.142-0.01,0.197c-0.005,0.058-0.052,0.1-0.136,0.129c-0.089,0.034-0.226,0.055-0.41,0.071
			c-0.189,0.016-0.452,0.024-0.777,0.024h-0.116c-0.583,0-0.951-0.019-1.119-0.058c-0.163-0.039-0.263-0.124-0.31-0.25
			c-0.031-0.079-0.063-0.2-0.089-0.357c-0.021-0.16-0.047-0.305-0.079-0.452c-0.357,0.413-0.835,0.741-1.429,0.985
			c-0.599,0.242-1.187,0.365-1.786,0.365c-0.762,0-1.455-0.139-2.075-0.42c-0.615-0.281-1.14-0.694-1.571-1.229
			c-0.431-0.541-0.757-1.19-0.983-1.952c-0.231-0.756-0.341-1.621-0.341-2.59c0-1.064,0.136-2.01,0.415-2.837
			c0.268-0.833,0.646-1.526,1.119-2.089c0.478-0.562,1.03-0.993,1.655-1.293c0.625-0.294,1.292-0.444,1.997-0.444
			c0.641,0,1.224,0.131,1.76,0.399c0.531,0.265,0.93,0.594,1.193,0.983L1098.302,443.629z M1097.929,447.002
			c-0.221-0.342-0.515-0.615-0.883-0.817c-0.368-0.202-0.756-0.305-1.161-0.305c-0.856,0-1.492,0.323-1.897,0.969
			c-0.41,0.646-0.61,1.579-0.61,2.795c0,0.515,0.037,0.993,0.116,1.439c0.079,0.441,0.21,0.82,0.399,1.135
			c0.184,0.307,0.436,0.554,0.757,0.733c0.326,0.179,0.72,0.271,1.187,0.271c0.378,0,0.72-0.066,1.035-0.187
			c0.31-0.126,0.552-0.297,0.725-0.518c0.126-0.171,0.21-0.362,0.257-0.573c0.047-0.207,0.073-0.454,0.073-0.735V447.002z"/>
		<path style="fill:#FFFFFF;" d="M1105.689,443.324c0.583,0,0.956,0.021,1.125,0.058c0.173,0.037,0.284,0.121,0.331,0.247
			c0.031,0.108,0.058,0.249,0.084,0.423c0.021,0.168,0.047,0.341,0.079,0.515c0.378-0.439,0.856-0.793,1.445-1.069
			c0.588-0.273,1.24-0.41,1.954-0.41c0.725,0,1.356,0.11,1.902,0.331c0.551,0.218,1.003,0.531,1.361,0.935
			c0.394,0.439,0.673,0.956,0.846,1.547c0.173,0.596,0.257,1.34,0.257,2.228v7.23c0,0.061-0.016,0.116-0.047,0.163
			c-0.031,0.045-0.094,0.082-0.2,0.105c-0.1,0.024-0.252,0.042-0.457,0.058c-0.205,0.016-0.478,0.024-0.82,0.024h-0.116
			c-0.378,0-0.667-0.008-0.883-0.024c-0.21-0.016-0.368-0.034-0.468-0.058c-0.105-0.024-0.163-0.06-0.189-0.105
			c-0.021-0.047-0.036-0.102-0.036-0.163v-6.337c0-0.407-0.005-0.743-0.021-1.019c-0.016-0.273-0.037-0.504-0.068-0.691
			c-0.032-0.189-0.079-0.344-0.142-0.47c-0.063-0.124-0.142-0.242-0.236-0.352c-0.157-0.171-0.368-0.305-0.646-0.399
			c-0.268-0.095-0.583-0.142-0.925-0.142c-0.268,0-0.541,0.034-0.82,0.094c-0.278,0.063-0.536,0.158-0.751,0.284
			c-0.252,0.155-0.415,0.331-0.494,0.525c-0.079,0.197-0.131,0.433-0.163,0.717c-0.031,0.263-0.047,0.604-0.047,1.009
			c0,0.407,0,0.835,0,1.29v5.491c0,0.061-0.016,0.116-0.047,0.163c-0.031,0.045-0.095,0.082-0.2,0.105
			c-0.1,0.024-0.252,0.042-0.457,0.058c-0.205,0.016-0.478,0.024-0.819,0.024h-0.116c-0.378,0-0.672-0.008-0.883-0.024
			c-0.21-0.016-0.368-0.034-0.468-0.058c-0.105-0.024-0.168-0.06-0.189-0.105c-0.026-0.047-0.031-0.102-0.031-0.163v-6.478
			c0-0.919-0.021-1.847-0.047-2.777c-0.031-0.933-0.073-1.718-0.121-2.359c0-0.076,0.005-0.144,0.026-0.2
			c0.01-0.055,0.068-0.097,0.163-0.126c0.095-0.031,0.236-0.058,0.436-0.071c0.194-0.019,0.452-0.024,0.783-0.024H1105.689z"/>
		<path style="fill:#FFFFFF;" d="M1118.593,443.324c0.341,0,0.62,0.005,0.825,0.024c0.2,0.013,0.352,0.034,0.452,0.058
			c0.1,0.021,0.173,0.058,0.215,0.105c0.037,0.047,0.073,0.1,0.1,0.163l1.455,4.597c0.252,0.799,0.462,1.542,0.636,2.23
			c0.174,0.688,0.315,1.356,0.421,1.994c0.126-0.612,0.273-1.271,0.447-1.983c0.173-0.712,0.368-1.442,0.588-2.191l1.361-4.647
			c0.011-0.063,0.047-0.116,0.089-0.163c0.047-0.047,0.126-0.084,0.226-0.105c0.1-0.023,0.242-0.045,0.42-0.058
			c0.179-0.019,0.426-0.024,0.741-0.024h0.305c0.357,0,0.641,0.005,0.846,0.024c0.205,0.013,0.352,0.042,0.441,0.079
			c0.095,0.039,0.147,0.087,0.158,0.142c0.005,0.055,0,0.113-0.016,0.176l-4.009,11.754c-0.347,1.001-0.704,1.857-1.077,2.569
			c-0.378,0.709-0.798,1.298-1.256,1.758c-0.462,0.462-0.988,0.801-1.571,1.019c-0.588,0.221-1.266,0.328-2.033,0.328
			c-0.499,0-0.982-0.052-1.45-0.163c-0.473-0.108-0.835-0.25-1.082-0.421c-0.11-0.079-0.158-0.189-0.137-0.328
			c0.01-0.142,0.073-0.399,0.184-0.778l0.094-0.326c0.126-0.407,0.231-0.675,0.315-0.796c0.089-0.129,0.215-0.158,0.389-0.094
			c0.184,0.06,0.42,0.115,0.704,0.163c0.284,0.047,0.531,0.071,0.751,0.071c0.31,0,0.599-0.04,0.867-0.118
			c0.263-0.079,0.515-0.221,0.751-0.423s0.457-0.481,0.667-0.833c0.21-0.352,0.415-0.801,0.62-1.348l-4.219-12.035
			c-0.031-0.063-0.042-0.121-0.026-0.176c0.016-0.055,0.073-0.103,0.174-0.142c0.105-0.037,0.257-0.066,0.462-0.079
			c0.2-0.019,0.494-0.024,0.867-0.024H1118.593z"/>
	</g>
</g>
</svg>
